<svg width="24" height="24" viewBox="0 0 24 24" fill="none" xmlns="http://www.w3.org/2000/svg">
<path d="M18 17.3723L14.6479 14.0202C15.4534 13.0532 15.8551 11.8129 15.7693 10.5573C15.6836 9.30166 15.1171 8.12742 14.1877 7.27884C13.2583 6.43026 12.0375 5.97267 10.7792 6.00126C9.52103 6.02986 8.32227 6.54243 7.43235 7.43235C6.54243 8.32227 6.02986 9.52103 6.00126 10.7792C5.97267 12.0375 6.43026 13.2583 7.27884 14.1877C8.12742 15.1171 9.30166 15.6836 10.5573 15.7693C11.8129 15.8551 13.0532 15.4534 14.0202 14.6479L17.3723 18L18 17.3723ZM6.90343 10.8982C6.90343 10.1081 7.13772 9.33576 7.57667 8.67883C8.01562 8.02189 8.63952 7.50987 9.36947 7.20752C10.0994 6.90516 10.9026 6.82605 11.6775 6.98019C12.4524 7.13433 13.1642 7.5148 13.7229 8.07347C14.2816 8.63215 14.6621 9.34395 14.8162 10.1189C14.9703 10.8938 14.8912 11.697 14.5889 12.4269C14.2865 13.1569 13.7745 13.7808 13.1176 14.2197C12.4606 14.6587 11.6883 14.893 10.8982 14.893C9.83908 14.8918 8.82368 14.4705 8.07477 13.7216C7.32586 12.9727 6.90461 11.9573 6.90343 10.8982Z" fill="#034EA2"/>
</svg>
